<svg xmlns="http://www.w3.org/2000/svg" viewBox="0 0 761.04 151.17"><g id="swaps"><g id="Layer_4" data-name="Layer 4"><path d="M641.66,79.43a56.85,56.85,0,0,1-1.29,9.4c-.18.86-.43,1.55-.69,2.5a10.66,10.66,0,0,1-.69,1.29,3.33,3.33,0,0,1-2.16,1.55,3.37,3.37,0,0,1-2.58-.78,8.73,8.73,0,0,1-2.42-3,22.79,22.79,0,0,1-3.36-9.49c-.09-.34-.17-1.46-.43-3.27a.82.82,0,0,0-.95.34c-1.38,1.9-2.15,2.93-2.33,3.28a16.16,16.16,0,0,0-1,1.55,8.6,8.6,0,0,1-.77,1.38c-.26.52-.52,1-.86,1.64s-.61,1-.87,1.46c-1.46,2.59-2.49,4.31-2.93,5.35a9.81,9.81,0,0,1-1.29,1.55,1.91,1.91,0,0,1-3-.26c-.34-.52-.69-1.21-1.2-2a21.82,21.82,0,0,1-1.12-4.66,49,49,0,0,1,.77-15.34c.09-.69.35-1.55.6-2.67a5.83,5.83,0,0,1,1.64-2.33,2.75,2.75,0,0,1,1.73-.69,2.39,2.39,0,0,1,1.81.69,2.84,2.84,0,0,1,1,1.72,3.54,3.54,0,0,1-.52,1.9A12.61,12.61,0,0,0,616.57,74a22.78,22.78,0,0,0-1.12,3.45c-.17.86-.34,2.24-.6,3.88a29.5,29.5,0,0,0-.43,5.94,11.94,11.94,0,0,0,.6,4.14c.09,0,.26.6.78,1.47.69-.61,1-.95,1-.95a33,33,0,0,0,2.07-3.45c.6-.86,1.38-2.41,2.5-4.48s2-3.62,2.59-4.66c.43-.6,1-1.63,2-2.93a8.72,8.72,0,0,1,1.29-1.29,2.05,2.05,0,0,1,1.81-.69,2.32,2.32,0,0,1,1.55,1.12,8.32,8.32,0,0,1,.7,1.72c.08.35.17.69.25,1a4.64,4.64,0,0,1,.35,1.21,6.5,6.5,0,0,0,.26,1.12c1,4,1.63,6.46,1.81,7.15s.6,1.55,1.2,2.93c.44.86.78,1.29,1.38,1.38.43,0,.87-.34,1.12-1a12.06,12.06,0,0,0,.78-2.42c.52-2.76.77-5.17,1-7.15a91.06,91.06,0,0,0,.35-16.12c-.09-2.24-.26-5.86-.35-11a16,16,0,0,1,.09-2,1,1,0,0,1,.17-.6.55.55,0,0,1,.69-.35,1.1,1.1,0,0,1,.43.52v2.59c.09.77.18,1.72.26,3.18.26,1.3.35,2.25.43,2.85A114,114,0,0,1,641.66,79.43Z"/><path d="M694.58,69.77c0,.26-.17.44-.43.78h-.08a5.49,5.49,0,0,1-.87.78c-.34.17-1.29.86-3.19,2.06-3.87,2.5-6.81,4.4-8.79,5.52a31.41,31.41,0,0,1-6.12,2.5,15.24,15.24,0,0,1-11-.52,20.07,20.07,0,0,1-3.62-2.58,10.05,10.05,0,0,1-2.68-4.83,1.78,1.78,0,0,1-.6.52l-.17.26c-.52.51-1.55,1.38-3.11,2.75L653,78c-.77.69-1.2,1-1.38,1.21-1.12,1.12-2.07,2-2.76,2.59a6.33,6.33,0,0,1-2.67,1.63,3.65,3.65,0,0,1-1.29.26,2.36,2.36,0,0,1-1.38-.43,3.21,3.21,0,0,1-1.21-2.33,9.19,9.19,0,0,1,.86-4,29.17,29.17,0,0,1,4.4-6.21,19,19,0,0,1,7-4.83,9,9,0,0,1,3.88-.6,2.66,2.66,0,0,1,2,1,2.29,2.29,0,0,1,.6,1.38,1.39,1.39,0,0,1-.43,1,1.3,1.3,0,0,1-1,.43,2.3,2.3,0,0,1-.86-.09c-1-.43-2.24-.25-3.88.26a18.65,18.65,0,0,0-9.74,9.31,3.32,3.32,0,0,0-.17,2.85h.17a3.64,3.64,0,0,1,.78-.09,12.75,12.75,0,0,0,2.24-1.55c.77-.69,2-1.72,3.71-3.28a11.47,11.47,0,0,1,1.46-1.46l1.12-1c1.55-1.38,2.59-2.41,3.36-3a1.81,1.81,0,0,1,1.73-.52c.43,0,1,.52,1.29,1.38,0,.17.17.52.26,1a1.46,1.46,0,0,1,.09.52,6.9,6.9,0,0,0,2.06,3.36c3.45,3.11,7.33,4,11.73,2.5a36,36,0,0,0,10.51-5.08c.7-.43,1.9-1.3,3.45-2.5a12.06,12.06,0,0,0,1.12-.69c.44-.35.87-.61,1.21-.86a7.41,7.41,0,0,1,1-.69,3.71,3.71,0,0,1,1.3-.69.66.66,0,0,1,.86.17A1.16,1.16,0,0,1,694.58,69.77Z"/><path d="M728.11,70.9a4.06,4.06,0,0,1-1,.77,51,51,0,0,0-9.14,5.26,2.37,2.37,0,0,0-.69.43,37.57,37.57,0,0,1-1.12,7.07,27.51,27.51,0,0,1-2.93,7.07,12.36,12.36,0,0,1-1.64,2.15,4.39,4.39,0,0,1-2,1.38,2.85,2.85,0,0,1-2.76.17,3,3,0,0,1-1.73-2.06,22.76,22.76,0,0,1-.25-3.62,8.29,8.29,0,0,1,1.55-4.66A20.18,20.18,0,0,1,710.87,80c1-.78,1.72-1.3,2.24-1.73a22.5,22.5,0,0,0-1.21-8.45c-.34-.86-.68-1.38-1.12-1.46s-.94.17-1.63.86a9.07,9.07,0,0,0-1.9,2.24c-1.29,2.16-2.33,4-3,5.35A93.28,93.28,0,0,0,698,94.52a154,154,0,0,0-3.7,19.13,29,29,0,0,0-.26,4.14v8.53c0,3,.09,6.3.09,9.92v8.62a31.23,31.23,0,0,1-.09,3.28,12.61,12.61,0,0,1-.17,1.89,1.43,1.43,0,0,1-1.73,1.12c-.77-.08-1.12-.51-1.29-1.38a7.61,7.61,0,0,0-.09-1.29,7.24,7.24,0,0,1-.08-1.12c0-.6-.26-2-.52-3.88-.17-2.07-.34-3.53-.43-4.57-.6-5.52-1-11.64-1-18.19-.08-9,.26-17.93.95-26.89Q690.7,80,692.77,68c.34-1.46,1.38-6.89,3.27-16.55a12.06,12.06,0,0,1,.69-2,2.65,2.65,0,0,1,.69-1.29,2,2,0,0,1,1.81-.78,2,2,0,0,1,1.64,1.12,3.3,3.3,0,0,1,.43,1.38,20,20,0,0,1-.43,5.69,3.81,3.81,0,0,1-1.38,2.15c-.43.09-.69.52-.77,1.3-1,5.77-1.47,9.14-1.56,10-.77,5.43-1.46,12.58-2.15,21.38,0,1-.17,4-.43,9.13v3.11c.26-1.38.51-2.42.69-3,.25-.77.51-1.9.86-3.36s.69-2.67,1-3.88.6-2.33.86-3.36a85.57,85.57,0,0,1,6.72-17.24c.69-1.21,1.47-2.59,2.5-4.05a5.52,5.52,0,0,1,1.64-1.82,4.35,4.35,0,0,1,2.93-1,4.07,4.07,0,0,1,2.67,1.55,7.75,7.75,0,0,1,1.56,2.5,15.31,15.31,0,0,1,1.29,4.74v.78a2.61,2.61,0,0,0,.17.95,14.58,14.58,0,0,1,1.9-1.21,35.43,35.43,0,0,1,7.41-3.79,8.3,8.3,0,0,1,1.12-.17.39.39,0,0,1,.43.25C728.28,70.72,728.28,70.81,728.11,70.9ZM712.77,83.14a8.67,8.67,0,0,1,.34-1.47V80.46c-.09,0-.26.09-.69.43a15,15,0,0,0-4.65,5.52,7.7,7.7,0,0,0-.86,4.57,4.87,4.87,0,0,0,.25,1.47.67.67,0,0,0,1.12.34,3.1,3.1,0,0,0,1-.69,15.31,15.31,0,0,0,1-1.72,27.41,27.41,0,0,0,2.07-6A6.38,6.38,0,0,1,712.77,83.14Z"/><path d="M761,70.72c-.09.26-.35.52-.52.43-1-.25-2.5.09-4.39,1-.69.34-3,1.55-6.9,3.7a8,8,0,0,1-.69.44,6.15,6.15,0,0,1,.26.68,12.62,12.62,0,0,1,.26,9.06,17.79,17.79,0,0,1-6.9,9.48c-.6.34-1.38.69-2.07,1a5.34,5.34,0,0,1-1.9.61A4.69,4.69,0,0,1,733.36,96a4.88,4.88,0,0,1-1.2-4.74,16.77,16.77,0,0,1,2.33-5.17,36.29,36.29,0,0,1,5.68-5.87c.18-.08,1.47-1,3.88-2.75a5.66,5.66,0,0,1,.78-.52c.34-.35.6-.52.78-.69l-.61-.78a10.22,10.22,0,0,0-5-1.81,40.34,40.34,0,0,0-4.65-.43,7.22,7.22,0,0,0-1.64-.08h-1.64a9,9,0,0,1-1.72-.09,3.82,3.82,0,0,1-3.54-4.22,8.88,8.88,0,0,1,1-4,11.56,11.56,0,0,1,2.41-3.71,10.38,10.38,0,0,1,3.28-2.32,5.14,5.14,0,0,1,1.38-.35,3.5,3.5,0,0,1,1.29,0A2.44,2.44,0,0,1,737.85,60a2.08,2.08,0,0,1-.69,2.07c-.09.09-.26.17-.35.35a1.6,1.6,0,0,1-.52.34,1.51,1.51,0,0,1-.43.35c-2.07,1.72-3.36,2.75-3.79,3.1A7.52,7.52,0,0,0,730,69.17c-.52,1-.17,1.55.86,1.73a11.83,11.83,0,0,0,2.5.51h2.5c1.47.17,2.5.17,3.28.26a19.69,19.69,0,0,1,4.14,1,8.06,8.06,0,0,1,4.14,2.5,35.12,35.12,0,0,1,3.1-1.81c2.24-1.29,4-2.24,5.34-2.93a17.71,17.71,0,0,1,2.42-.86,2.85,2.85,0,0,1,2.41.43C761,70.21,761.12,70.38,761,70.72Zm-14.31,6.81a.31.31,0,0,1-.26.09,32.6,32.6,0,0,0-10,8.62,11,11,0,0,0-2.24,4,8.9,8.9,0,0,0-.35,2.41,2.79,2.79,0,0,0,.87,2.24,2.91,2.91,0,0,0,2.41.52,9.89,9.89,0,0,0,2.5-.86,15.61,15.61,0,0,0,7.93-11.38A9.37,9.37,0,0,0,746.64,77.53Z"/></g></g><g id="sustainable"><g id="Layer_9" data-name="Layer 9"><path d="M63.91,87.78l.38-.33a10.5,10.5,0,0,1-1.24-.53,90.91,90.91,0,0,0-12.47-4.2c-6-1.72-13.87-3.6-23.77-5.91-5.81-1.29-9.84-2.26-12.26-3a49.79,49.79,0,0,1-6.4-2.42,15.62,15.62,0,0,1-4.41-2.9A11.12,11.12,0,0,1,0,60.73a17.56,17.56,0,0,1,.43-4.89A32.2,32.2,0,0,1,4.87,45.51a73.94,73.94,0,0,1,8.61-10.92A89.28,89.28,0,0,1,26,23.36,94,94,0,0,1,53.48,9.86a57.6,57.6,0,0,1,9.14-1.94,25.85,25.85,0,0,1,7-.1,10.28,10.28,0,0,1,3.34,1,6.72,6.72,0,0,1,4.19,7.1,14.77,14.77,0,0,1-.7,3.71,22.48,22.48,0,0,1-2.31,5.43c-.8,1.5-2,3.49-3.49,6.07l-1.29,1.78a4.12,4.12,0,0,1-.92,1,1.88,1.88,0,0,1-1.61.21,1.62,1.62,0,0,1-1.08-1.18,2.68,2.68,0,0,1-.1-1.29,18.61,18.61,0,0,1,2.9-7l1.07-1.07a1,1,0,0,1,1.13-.11,1,1,0,0,1,.54,1.08,4.63,4.63,0,0,1-.16.8l-.27.92c.11.05.27-.06.43-.27a31.05,31.05,0,0,0,3.28-7.26,14.25,14.25,0,0,0,.65-4,4.69,4.69,0,0,0-2.69-4.2,11.56,11.56,0,0,0-3.82-1A26.77,26.77,0,0,0,62,9.86a64.44,64.44,0,0,0-16.56,5.27,87.84,87.84,0,0,0-26.94,18.5A83.47,83.47,0,0,0,9.82,43.9a46.26,46.26,0,0,0-5.16,8.71,21.41,21.41,0,0,0-1.94,6,11.25,11.25,0,0,0,0,3.28A8.1,8.1,0,0,0,5,66.48a13.81,13.81,0,0,0,4,2.91A43.32,43.32,0,0,0,15.47,72c2.58.8,6,1.56,10.48,2.58,10.38,2.2,18.07,4,23.23,5.27a118.23,118.23,0,0,1,17.26,5.81l.38.16,1-.76Q79,77.38,86.23,73.2c1.51-.91,3.33-1.88,5.65-3a15.77,15.77,0,0,1,5.05-1.66,2.78,2.78,0,0,1-1.65,2.31A27.46,27.46,0,0,0,92.47,72,86.82,86.82,0,0,0,84,76.7c-4.09,2.53-8.88,5.59-14.68,9.41a3.11,3.11,0,0,1-.54.38.43.43,0,0,0,.37.48.23.23,0,0,0,.17,0,49.71,49.71,0,0,1,6.93,4.36A34.28,34.28,0,0,1,82.41,97a29.72,29.72,0,0,1,2.85,4.41,18.09,18.09,0,0,1,1.24,14.36,26.7,26.7,0,0,1-3.5,7.2,39.16,39.16,0,0,1-6.83,8,67.85,67.85,0,0,1-27.47,16A39.4,39.4,0,0,1,40,148.59a20.55,20.55,0,0,1-8.66-1,17.57,17.57,0,0,1-3.6-1.93,10,10,0,0,1-4-7.64,21.13,21.13,0,0,1,.81-6.77,42.27,42.27,0,0,1,3.71-8.72,74.76,74.76,0,0,1,8.93-12.26,118.36,118.36,0,0,1,18.6-16.61c1.45-.92,4-2.8,7.74-5.54Zm2.26.53-.53.27a179.82,179.82,0,0,0-16.35,12.21,100.37,100.37,0,0,0-12.91,12.9,61.22,61.22,0,0,0-7,9.79,37.3,37.3,0,0,0-3.44,8,19.47,19.47,0,0,0-.86,6.73,8.07,8.07,0,0,0,3.12,6,23.47,23.47,0,0,0,2.26,1.4A14.61,14.61,0,0,0,36.11,147a29.18,29.18,0,0,0,10.27-1.29,65.82,65.82,0,0,0,28-16.13,43.13,43.13,0,0,0,6.5-8.06,25.69,25.69,0,0,0,3.07-6.73,16.54,16.54,0,0,0-1.62-13.17A24.22,24.22,0,0,0,78.76,97,42.6,42.6,0,0,0,66.17,88.31Z"/><path d="M583.93,87.78l.37-.33a9.83,9.83,0,0,1-1.23-.53,91.58,91.58,0,0,0-12.48-4.2c-6-1.72-13.87-3.6-23.77-5.91-5.8-1.29-9.84-2.26-12.26-3a50.37,50.37,0,0,1-6.4-2.42,15.62,15.62,0,0,1-4.41-2.9,11.16,11.16,0,0,1-3.71-7.8,17.56,17.56,0,0,1,.43-4.89,32.2,32.2,0,0,1,4.41-10.33,73.94,73.94,0,0,1,8.61-10.92A90.41,90.41,0,0,1,546,23.36a94,94,0,0,1,27.47-13.5,57.48,57.48,0,0,1,9.15-1.94,25.85,25.85,0,0,1,7-.1,10.29,10.29,0,0,1,3.33,1,6.72,6.72,0,0,1,4.19,7.1,14.72,14.72,0,0,1-.69,3.71,22.9,22.9,0,0,1-2.32,5.43c-.8,1.5-2,3.49-3.49,6.07l-1.29,1.78a4.12,4.12,0,0,1-.92,1,1.88,1.88,0,0,1-1.61.21,1.62,1.62,0,0,1-1.08-1.18,2.68,2.68,0,0,1-.1-1.29,18.77,18.77,0,0,1,2.9-7l1.08-1.07a1,1,0,0,1,1.13-.11,1,1,0,0,1,.53,1.08,4.63,4.63,0,0,1-.16.8l-.27.92c.11.05.27-.06.43-.27a31.05,31.05,0,0,0,3.28-7.26,14.25,14.25,0,0,0,.65-4,4.69,4.69,0,0,0-2.69-4.2,11.56,11.56,0,0,0-3.82-1,26.77,26.77,0,0,0-6.72.38,64.44,64.44,0,0,0-16.56,5.27,88,88,0,0,0-26.94,18.5,83.47,83.47,0,0,0-8.66,10.27,46.26,46.26,0,0,0-5.16,8.71,21.41,21.41,0,0,0-1.94,6,11.25,11.25,0,0,0,0,3.28A8.1,8.1,0,0,0,525,66.48a13.81,13.81,0,0,0,4,2.91A43.32,43.32,0,0,0,535.48,72c2.58.8,6,1.56,10.48,2.58,10.38,2.2,18.07,4,23.23,5.27a118.23,118.23,0,0,1,17.26,5.81l.38.16,1-.76Q599,77.38,606.24,73.2c1.51-.91,3.34-1.88,5.65-3a15.77,15.77,0,0,1,5.05-1.66,2.78,2.78,0,0,1-1.65,2.31A28.44,28.44,0,0,0,612.48,72,86.82,86.82,0,0,0,604,76.7c-4.09,2.53-8.88,5.59-14.68,9.41a2.7,2.7,0,0,1-.54.38.43.43,0,0,0,.38.48.19.19,0,0,0,.16,0,49.71,49.71,0,0,1,6.93,4.36A34.28,34.28,0,0,1,602.42,97a29.72,29.72,0,0,1,2.85,4.41,18.09,18.09,0,0,1,1.24,14.36,27,27,0,0,1-3.49,7.2,39.8,39.8,0,0,1-6.83,8,67.89,67.89,0,0,1-27.48,16,39.4,39.4,0,0,1-8.71,1.66,20.55,20.55,0,0,1-8.66-1,17.84,17.84,0,0,1-3.6-1.93,10,10,0,0,1-4-7.64,21.13,21.13,0,0,1,.81-6.77,42.27,42.27,0,0,1,3.71-8.72,74.76,74.76,0,0,1,8.93-12.26,118.36,118.36,0,0,1,18.6-16.61c1.45-.92,4-2.8,7.75-5.54Zm2.25.53-.53.27a182.68,182.68,0,0,0-16.35,12.21,101,101,0,0,0-12.91,12.9,61.22,61.22,0,0,0-7,9.79,37.3,37.3,0,0,0-3.44,8,19.47,19.47,0,0,0-.86,6.73,8.07,8.07,0,0,0,3.12,6,23.47,23.47,0,0,0,2.26,1.4,14.62,14.62,0,0,0,5.65,1.39,29.23,29.23,0,0,0,10.27-1.29,65.84,65.84,0,0,0,28-16.13,43.13,43.13,0,0,0,6.5-8.06,25.36,25.36,0,0,0,3.07-6.73,16.58,16.58,0,0,0-1.61-13.17A24.27,24.27,0,0,0,598.77,97,42.6,42.6,0,0,0,586.18,88.31Z"/><path d="M137.9,75.74a3.91,3.91,0,0,1-.69,1.12,21.77,21.77,0,0,1-1.89,2c-1.56,1.55-3.11,2.76-4.49,4-2.07,1.72-4,3.1-5.51,4.22a24.9,24.9,0,0,1-3.71,2.33,10.16,10.16,0,0,1-4.91,1.12,9.1,9.1,0,0,1-7.25-3.36,10.71,10.71,0,0,1-2.93-6.3c-.08-.08-.17-1.29-.43-3.62-.08,0-.26.09-.34.09s-.09.09-.17.17l-.26.26c0,.09-.09.17-.09.26a7.5,7.5,0,0,0-1.12,1.64c-.69,1.12-1.21,2-1.55,2.5A36.75,36.75,0,0,1,100,84.88a4.6,4.6,0,0,1-2.41,1.38,2.58,2.58,0,0,1-2.93-.87,5.25,5.25,0,0,1-1-1.89,12.17,12.17,0,0,1-.77-2.93A21.87,21.87,0,0,1,94.63,68.5a3.33,3.33,0,0,1,.69-1.38,2.55,2.55,0,0,1,1.12-1,1.73,1.73,0,0,1,1.81,0,1.66,1.66,0,0,1,.86,1.55A4.59,4.59,0,0,1,98.94,69c-.17.52-.35,1.21-.52,1.73a42.2,42.2,0,0,0-2.16,9.83,6.51,6.51,0,0,0,.44,3.79,3.48,3.48,0,0,0,2.75-1,22.09,22.09,0,0,0,2.16-2.5c.6-.86,1.81-2.76,3.53-5.6.18-.35.52-.78.87-1.3.26-.68.51-1,.6-1.29a2.47,2.47,0,0,1,.69-.86c.26-.26.52-.26,1-.26a1.05,1.05,0,0,1,.69.35,3,3,0,0,1,.51,1.55v3.1a21.06,21.06,0,0,0,.69,5.6,9.67,9.67,0,0,0,2.07,3.71,6.83,6.83,0,0,0,7.07,2.33A10.72,10.72,0,0,0,122.73,87a20.49,20.49,0,0,0,2.93-2.07c2.24-1.73,5.17-4.14,8.71-7.24.08-.09.86-.87,2.15-2.07,0-.09,0-.18.18-.35s.17-.26.25-.26c.44-.34.69-.34.87-.08A1,1,0,0,1,137.9,75.74Z"/><path d="M179.62,28.76a.7.7,0,0,1-.35.08c-.08.17-.25.35-.25.43C172,45,162.46,63.5,150.39,84.88a4.67,4.67,0,0,1,.61.69,2.63,2.63,0,0,1,.52.69,15.57,15.57,0,0,1,3,4.56,13.26,13.26,0,0,1,.09,11.3,17.24,17.24,0,0,1-4.74,6,10.61,10.61,0,0,1-4,1.64,4.1,4.1,0,0,1-3.79-.78,4.79,4.79,0,0,1-1.64-3.62,9.39,9.39,0,0,1,.69-4c1-2.41,1.64-4.14,2.16-5.26.34-.6,1.72-3.1,4.13-7.76.09-.17.26-.51.52-.94s.43-.78.52-.78a22.39,22.39,0,0,0-1.9-1.72c-.6-.43-1.55-1-2.93-2.07a32,32,0,0,0-3.19-2.24,17.19,17.19,0,0,1-2.33-2.07,5.36,5.36,0,0,1-1.55-5.86,14.13,14.13,0,0,1,6.9-7.94,6.87,6.87,0,0,1,1.55-.51,4.22,4.22,0,0,1,2.15.51,4.87,4.87,0,0,1,1.3,1.64,3.7,3.7,0,0,1-.17,2.16A2.79,2.79,0,0,1,146.69,70,15.56,15.56,0,0,0,142,73.5c-.26.34-.52.77-.86,1.29a1.57,1.57,0,0,0,.08,2.07c.43.43.6.78.78.86,1.63,1.29,4.22,3.54,7.76,6.47.6-1,.86-1.56.94-1.64C155,74.7,159,67,162.72,59.19c6.38-13.11,11.21-23.28,14.4-30.61a5,5,0,0,0,.77-2.06c-.94.08-2.32.17-4.13.43s-2.76.26-3,.26c-2.76.25-5.09.51-7.07.6a33.19,33.19,0,0,1-4,.34,33.71,33.71,0,0,1-3.45.26c-2.76.26-5.18.43-7.07.6-1.12.18-3.45.35-7,.61-.18.08-.26.34-.44.52a1.22,1.22,0,0,1-.51.43c-.17.17-.35.34-.52.34-.26.26-.86.35-1.9.52a49,49,0,0,1-8.79.43,16.93,16.93,0,0,1-2.24-.43,2.38,2.38,0,0,1-1-.35,2.12,2.12,0,0,1-1.12-2,2.41,2.41,0,0,1,1.12-2,19,19,0,0,1,2-.6,28.46,28.46,0,0,1,9.39.17,9,9,0,0,0,2.5.17c6.12-.34,13-.86,20.61-1.29,3.1-.26,7.07-.52,11.89-.95.52,0,1.21-.09,1.73-.09a18.12,18.12,0,0,1,2.24-.17c.86-.17,1.38-.17,1.9-.26a4.93,4.93,0,0,1,.69-1.12c2.06-4.83,3.44-8.45,4.22-10.86a26.58,26.58,0,0,1,1-2.59,2.12,2.12,0,0,1,.52-.95.8.8,0,0,1,1-.25,1,1,0,0,1,.6.86,2.31,2.31,0,0,1-.26,1c-1,2.93-2.16,6.9-3.28,12a10.15,10.15,0,0,1-.25,1.2l1.12.09c1.81-.09,3.36-.26,4.57-.43,2.24-.26,8.79-1,19.74-2.42,11.55-1.46,18-2.24,19.39-2.41,1.64-.17,7.5-.95,17.42-2.07h1a1.58,1.58,0,0,1,.69.6c.17.35.09.69-.34,1a5.69,5.69,0,0,1-1.38.52q-4.4.9-5.69,1c-7.07.86-14.49,1.72-22.07,2.59-2.07.17-5.17.6-9.4,1s-7.41.69-9.57,1c-.69,0-6,.68-16,1.89a14.23,14.23,0,0,0-.6,2.07c-1.55,7.24-2.93,15-4.14,23.36-.26,2.33-.86,7.5-1.55,15.35a182,182,0,0,0-1.21,19.13c0,5.44,0,9.49.18,12.5.08,2.07.34,5.18.86,9.06.34,3.62,2,14.91,2.77,20.08,0,1.08-2.16,6-2.85.33-.69-6.21-3-24.12-3.37-31.36-.26-5.35-.17-11,.09-17.33.17-3.62.34-6.46.51-8.45.52-5.34.95-9.82,1.38-13.27.61-4.57,1.21-9.06,2-13.71,0-.34.86-4.91,2.5-13.88ZM149.27,87.29l-.51.69c-2.68,5.17-4.23,8.28-4.74,9.31a42.39,42.39,0,0,0-1.73,4.83,8.78,8.78,0,0,0-.34,3.36c.08,2,1.2,2.93,3.27,2.76a7.38,7.38,0,0,0,2.93-1.12,13.85,13.85,0,0,0,4.49-5.17,11,11,0,0,0,1.12-6.73C153.33,92.64,151.77,90,149.27,87.29Z"/><path d="M237.2,75c0,.26-.18.43-.43.78h-.09a5.81,5.81,0,0,1-.86.77c-.35.18-1.3.87-3.19,2.07-3.88,2.5-6.81,4.4-8.8,5.52a31.41,31.41,0,0,1-6.12,2.5,15.29,15.29,0,0,1-11-.52,20.07,20.07,0,0,1-3.62-2.58,10,10,0,0,1-2.67-4.83,2.07,2.07,0,0,1-.61.52l-.17.26c-.52.51-1.55,1.37-3.1,2.75l-.87,1c-.77.69-1.2,1-1.37,1.21-1.13,1.12-2.07,2-2.76,2.59a6.4,6.4,0,0,1-2.68,1.63,3.61,3.61,0,0,1-1.29.26,2.38,2.38,0,0,1-1.38-.43A3.25,3.25,0,0,1,185,86.08a9,9,0,0,1,.87-4,28.78,28.78,0,0,1,4.39-6.21,19,19,0,0,1,7-4.83,9,9,0,0,1,3.88-.6,2.69,2.69,0,0,1,2,1,2.29,2.29,0,0,1,.6,1.38,1.36,1.36,0,0,1-.43,1,1.28,1.28,0,0,1-1,.43,2.36,2.36,0,0,1-.87-.09c-1-.43-2.24-.26-3.88.26a18.68,18.68,0,0,0-9.74,9.31,3.39,3.39,0,0,0-.17,2.85h.17a3.64,3.64,0,0,1,.78-.09,12.38,12.38,0,0,0,2.24-1.55c.78-.69,2-1.73,3.71-3.28a11.47,11.47,0,0,1,1.46-1.46l1.12-1c1.56-1.38,2.59-2.41,3.37-3a1.79,1.79,0,0,1,1.72-.52c.43,0,.95.52,1.29,1.38,0,.17.18.52.26,1a1.46,1.46,0,0,1,.09.52A6.85,6.85,0,0,0,205.82,82c3.45,3.11,7.32,4,11.72,2.5a36.12,36.12,0,0,0,10.52-5.08c.69-.44,1.89-1.3,3.45-2.5.25-.18.69-.35,1.12-.69s.86-.61,1.2-.87a7.8,7.8,0,0,1,1-.69,3.92,3.92,0,0,1,1.29-.69.67.67,0,0,1,.86.18A1.1,1.1,0,0,1,237.2,75Z"/><path d="M319.86,75.13a3.89,3.89,0,0,1-.95.69c-3.62,2.33-5.77,3.63-6.38,4A21.64,21.64,0,0,1,304,83.15a10.11,10.11,0,0,1-7.76-1.72A28.39,28.39,0,0,1,291.59,77c-.18-.18-.35-.52-.69-.87a9.92,9.92,0,0,0-.78-1,2.57,2.57,0,0,0-.69-.86,13.62,13.62,0,0,1-.95-1.29,1.44,1.44,0,0,0-1.89-.09,7.77,7.77,0,0,0-1.73,1.56c-.69.77-2.07,2.24-4,4.56-.09.09-.52.69-1.47,1.73a21.58,21.58,0,0,1-2,2.24,5.61,5.61,0,0,1-1.9,1.64,2.68,2.68,0,0,1-2.24.43,2.87,2.87,0,0,1-1.38-1.73,6.88,6.88,0,0,1-.52-2.75,45.67,45.67,0,0,1,1.21-11.38c.43-2.24,1.55-7.24,3.19-15l.26-1.38-.86.34c-1.38,1.3-2.42,2.16-2.93,2.67-1.9,2-4.32,4.75-7,8-3.45,4.31-7.5,10.09-12.24,17.07-1.89,2.93-3.71,5.52-5.52,8a15.34,15.34,0,0,1-2.75,3.1,12.11,12.11,0,0,1-2.42,1.64,4.48,4.48,0,0,1-5.08-.86A8.8,8.8,0,0,1,235,89.7a15.81,15.81,0,0,1-1-4.82,25.48,25.48,0,0,1,2.07-12.16,13.3,13.3,0,0,1,.77-1.64,6,6,0,0,1,.78-.69,1.5,1.5,0,0,1,1.29-.34,1.52,1.52,0,0,1,.87,1,7.54,7.54,0,0,1,0,1.9c-.09.6-.26,1.38-.44,2.24s-.34,1.73-.51,2.59-.35,1.55-.52,2.24a30.51,30.51,0,0,0-.6,7.76,8.48,8.48,0,0,0,.51,2.15A3,3,0,0,0,240,92a2.77,2.77,0,0,0,2.59-.52,9,9,0,0,0,2-1.63,27,27,0,0,0,2.68-3.19q2.19-3,5.17-7.5,8.26-12.16,14-19.14c1.38-1.64,3.45-4.14,6.55-7.5a14.63,14.63,0,0,1,2.42-2.16,2.56,2.56,0,0,1,2.41-.51,2.74,2.74,0,0,1,1.55,1.89,12,12,0,0,1,.35,2.93,49.19,49.19,0,0,1-.95,7.42c-.43,2.33-1,5.69-2,10s-1.38,7.07-1.55,8.19v1c.25,0,.51-.17.86-.6,1-1.21,2-2.24,2.84-3.1A11.15,11.15,0,0,1,280,76.26l1.3-1.56c.43-.51.77-1,1.12-1.37a14.14,14.14,0,0,1,2.5-2.25c2-1.63,4-1.55,5.86.35.43.52,1.29,1.46,2.41,2.93A40.5,40.5,0,0,0,297.45,79c.26.18.6.44.86.61a6.1,6.1,0,0,0,1,.6,5.09,5.09,0,0,0,1,.43,6.38,6.38,0,0,0,1.21.17,12.45,12.45,0,0,0,3.1-.17,19.63,19.63,0,0,0,5.43-2.15c3.62-1.81,6.12-3.11,7.76-4a5,5,0,0,1,1.46-.52c.35-.08.61,0,.69.35A.49.49,0,0,1,319.86,75.13ZM239,64.53a2.29,2.29,0,0,1-.43-1.29,2.22,2.22,0,0,1,.6-1.29,1.59,1.59,0,0,1,1.21-.52,1.67,1.67,0,0,1,1.21.6,2.92,2.92,0,0,1,.34,1.29,3.33,3.33,0,0,1-.69,1.38,1.83,1.83,0,0,1-1.21.52A2,2,0,0,1,239,64.53Z"/><path d="M376.57,31.17a5.36,5.36,0,0,0-.95,1.47c-.34.51-.69,1.12-1,1.72s-.78,1-.95,1.38c-6.46,10.34-13,20.34-19.74,29.83A128.73,128.73,0,0,1,343,79.7a46.29,46.29,0,0,1-3.88,3.71,26.48,26.48,0,0,1-3.62,2.33,6.68,6.68,0,0,1-4.14.86A6.08,6.08,0,0,1,325.88,83a10.29,10.29,0,0,1-.94-1.9,7.63,7.63,0,0,1-1.21.69,16.84,16.84,0,0,1-1.64,1.47c-.78.69-1.29,1.21-1.64,1.46-2.58,2.25-4.48,4-5.69,4.83A9.93,9.93,0,0,1,312.35,91a1.42,1.42,0,0,1-1.55-.09,1.82,1.82,0,0,1-.86-1.38,3.91,3.91,0,0,1,.17-1.81,34.09,34.09,0,0,1,1.55-4,30.1,30.1,0,0,1,10.69-11.21,7.41,7.41,0,0,1,2.41-1,5.2,5.2,0,0,1,2.24.17,2.38,2.38,0,0,1,1.56,2.07,3.2,3.2,0,0,1-.18,1.29,2.12,2.12,0,0,1-.69.87,2.55,2.55,0,0,1-1.38.26,5.13,5.13,0,0,0-3.62.77,25.17,25.17,0,0,0-10,10.35l-.08.77c.08,0,.26.09.43,0h.34l.18-.17c.17-.17.17-.17.17-.26a67.43,67.43,0,0,0,7.67-6.38c1.12-1.12,2-1.81,2.33-2.15,1.38-1,2.58-.78,3.45.77a2.54,2.54,0,0,1,.26.43,5.35,5.35,0,0,1,.34.61,4,4,0,0,0,.26.6c1.21,2.59,3.19,3.45,5.95,2.5a10.46,10.46,0,0,0,2.76-1.47,30.8,30.8,0,0,0,3.36-2.84,109.42,109.42,0,0,0,9.57-11.29c4.65-6.3,9.57-13.62,14.91-21.9,3.79-6,9.14-14.65,16.21-26,.34-.69,1.29-2.59,2.76-5.78.51-.95,1.2-2.33,2.15-4.22s1.55-3.28,2-4.31a11.27,11.27,0,0,1,1.12-1.64,1.67,1.67,0,0,1,1-.86,1.23,1.23,0,0,1,1.21.17,1,1,0,0,1,.43,1.12c-.18.52-.43,1.21-.78,2.16A291,291,0,0,0,378,42.46c-2.58,8.8-5.26,19.31-7.93,31.55-.09.26-.17.87-.34,1.81a19.59,19.59,0,0,0-.44,2.16v1.21a15.3,15.3,0,0,1,1.64-1.81,26.27,26.27,0,0,1,7.85-5.87,21.88,21.88,0,0,1,4.14-1.46,6.87,6.87,0,0,1,7.24,2.76A14.66,14.66,0,0,1,392.69,80l.26,2.16c.09-.17.35-.26.61-.35s.51-.26.6-.34.34-.17.43-.26c.69-.43,1.47-.86,2.41-1.55s1.9-1.21,2.76-1.73a11.94,11.94,0,0,1,2.42-1.38,25,25,0,0,1,4.56-2.32,6.66,6.66,0,0,1,4.06-.78,1,1,0,0,1,.86.86,1.05,1.05,0,0,1-.52,1.12c-.34.18-.69.26-.86.35a30.07,30.07,0,0,0-5.86,2.5q-2.07,1.29-10.86,6.46a1.91,1.91,0,0,0-.7.52c-.68,3-1,4.66-1,4.83a39.05,39.05,0,0,1-5,11.38,24.32,24.32,0,0,1-5.69,6.38,14.45,14.45,0,0,1-3.79,2.41,5.19,5.19,0,0,1-3,.86,4.14,4.14,0,0,1-2.84-1,3.44,3.44,0,0,1-1-2.67,20.32,20.32,0,0,1,.35-3.19,19,19,0,0,1,3.1-5.77,35.88,35.88,0,0,1,5.52-6.12,66,66,0,0,1,8.36-6.64,1.33,1.33,0,0,0,.6-.35,1.08,1.08,0,0,1,.61-.34,1.46,1.46,0,0,1,.51-.52.78.78,0,0,0,.43-.34A16.74,16.74,0,0,0,389.5,77a11.7,11.7,0,0,0-1.63-3.28A4.59,4.59,0,0,0,383.21,72a11.27,11.27,0,0,0-3.45,1.12,21.17,21.17,0,0,0-6.29,4.22,30.46,30.46,0,0,0-5.86,7.76q-.53.9-.78,1.29a1.23,1.23,0,0,1-1,.26,1,1,0,0,1-.78-.86,4.91,4.91,0,0,1,.09-1.55c2.07-11.73,3.27-18.36,3.53-20a269.42,269.42,0,0,1,8-30.95,7.81,7.81,0,0,1,.34-.86,6.55,6.55,0,0,0,.35-1v-.95l.26-.34-.18-.09-.25.26c0,.08.08.08.17.26Zm13,56.29a5.12,5.12,0,0,0-1.21.69,74.82,74.82,0,0,0-8.62,7.24,31.68,31.68,0,0,0-4.65,5.78,29.69,29.69,0,0,0-1.73,3.19,9.48,9.48,0,0,0-.51,2.58c0,1,.51,1.56,1.63,1.38a7.94,7.94,0,0,0,3-1.2,21.67,21.67,0,0,0,6.72-6.73,32.42,32.42,0,0,0,4.83-10.86C389.07,89.45,389.25,88.76,389.59,87.46Z"/><path d="M423.54,14.79a4.38,4.38,0,0,1-.17.69,1.58,1.58,0,0,1-.26.69c-.09.26-.09.43-.17.6a226.49,226.49,0,0,0-7,31.12c-.61,3.62-1.21,8.71-1.73,15.26a181.61,181.61,0,0,0-.78,25,123.63,123.63,0,0,0,2.33,22,22.94,22.94,0,0,0,1.9,6.3,16.82,16.82,0,0,0,1.55,3.27,15.53,15.53,0,0,0,2.07,2.24,4.77,4.77,0,0,0,4.83.87c1-.52,2.07-1,3-1.55a25.55,25.55,0,0,0,4.92-4,73,73,0,0,0,6.55-7.59,129.74,129.74,0,0,0,10.86-18.79,4.27,4.27,0,0,0,.17-3.1,43,43,0,0,1,.69-26.21,22.59,22.59,0,0,1,2.07-4.48,6.14,6.14,0,0,1,2.24-2.24,3.52,3.52,0,0,1,3.11-.52A3.47,3.47,0,0,1,462,56.51a10.89,10.89,0,0,1,.69,2.76,39.14,39.14,0,0,1-.69,7,92.66,92.66,0,0,1-5.86,18.88,13.14,13.14,0,0,0-.69,2.24,7.78,7.78,0,0,0,.6,2.24,20.13,20.13,0,0,0,2.33,4.74A11.77,11.77,0,0,0,460.78,97a5.48,5.48,0,0,0,5,.77,9.88,9.88,0,0,0,3-1.55,46.82,46.82,0,0,0,3.53-3.36A34.62,34.62,0,0,0,477,86.6c1-2.07,2.76-5.17,5.09-9.48a4.9,4.9,0,0,0,.6-2.24c0-.52.17-.87.69-.87.69-.25,1.12-.08,1.38.35a1.79,1.79,0,0,1,.34,1,5,5,0,0,1-.26,1.73c-.6,1.38-1.12,2.41-1.46,3.1-2.59,4.4-4.83,8-6.64,10.86a29.29,29.29,0,0,1-4.57,5.43,19.72,19.72,0,0,1-4.31,3,9,9,0,0,1-9.39-.86,13.84,13.84,0,0,1-4.23-4.83,1.47,1.47,0,0,0-.35-.43c-.08-.26-.25-.43-.34-.69a2.45,2.45,0,0,1-.34-.69,19.72,19.72,0,0,0-1.12,2.07,119.59,119.59,0,0,1-8.62,14.57,70.43,70.43,0,0,1-8.54,10.69,32.1,32.1,0,0,1-5,4,11.49,11.49,0,0,1-3.88,1.64,7.34,7.34,0,0,1-6-1,14.44,14.44,0,0,1-3.27-3.27,26,26,0,0,1-3-6.21,66.45,66.45,0,0,1-3.36-14.14,170.09,170.09,0,0,1-1.12-29.65A211.79,211.79,0,0,1,416,27.29c.51-2.24,2.67-10.17,6.38-23.62a6.25,6.25,0,0,1,.6-1.81A3.07,3.07,0,0,1,425.35.05a2.86,2.86,0,0,1,2.85,1,4.17,4.17,0,0,1,1,1.9,16.44,16.44,0,0,1-.43,10.52,5,5,0,0,1-1,1.38,2.47,2.47,0,0,1-2.85.51Zm31.12,68a7.9,7.9,0,0,1,.69-1.38c1.29-3.79,2.07-6,2.33-6.9A53.26,53.26,0,0,0,460.09,62a9.86,9.86,0,0,0-.17-3.62s-.26-.44-.6-1h-.26c-.52.26-.86.43-.95.6a3.28,3.28,0,0,0-.52.78,26.56,26.56,0,0,0-1.81,4.22,49.25,49.25,0,0,0-1.55,18.88Z"/></g></g></svg>